<?xml version="1.0" standalone="no"?>
<!DOCTYPE svg PUBLIC "-//W3C//DTD SVG 20010904//EN"
 "http://www.w3.org/TR/2001/REC-SVG-20010904/DTD/svg10.dtd">
<svg version="1.0" xmlns="http://www.w3.org/2000/svg"
 width="800.000000pt" height="600.000000pt" viewBox="0 0 800.000000 600.000000"
 preserveAspectRatio="xMidYMid meet">

<g transform="translate(0.000000,600.000000) scale(0.100000,-0.100000)"
fill="#000000" stroke="none">
<path d="M0 3000 l0 -3000 4000 0 4000 0 0 3000 0 3000 -4000 0 -4000 0 0
-3000z m4225 1355 c575 -168 777 -888 372 -1322 -174 -185 -386 -272 -640
-261 -210 10 -377 86 -532 242 -72 72 -100 110 -137 182 -73 141 -92 222 -92
384 0 159 14 221 79 355 113 233 334 397 597 444 90 17 252 6 353 -24z m-475
-1748 c26 -10 34 -17 32 -32 -5 -29 -8 -29 -33 -6 -26 24 -77 36 -111 26 -57
-18 -90 -74 -90 -155 0 -67 22 -121 59 -145 36 -24 109 -22 144 4 28 21 29 21
29 2 0 -23 -63 -51 -116 -51 -120 0 -200 122 -164 252 26 94 142 142 250 105z
m430 -9 c66 -34 90 -76 90 -157 0 -125 -70 -195 -187 -188 -67 3 -99 20 -137
71 -17 22 -21 42 -21 109 0 71 3 87 24 116 49 68 151 89 231 49z m363 -120
l69 -143 73 145 c41 80 75 143 76 140 1 -3 11 -85 23 -182 l22 -178 -27 0 -26
0 -7 118 c-4 64 -11 121 -15 125 -7 7 -81 -138 -110 -215 -10 -26 -31 -39 -31
-19 0 5 -26 62 -57 127 l-57 119 -7 -40 c-4 -22 -11 -79 -14 -127 -5 -66 -10
-88 -21 -88 -8 0 -14 6 -14 13 -1 31 45 347 50 347 3 0 36 -64 73 -142z
m-1564 115 c38 -32 32 -96 -11 -123 l-32 -19 27 -10 c39 -15 61 -54 54 -98
-10 -62 -35 -77 -130 -81 l-82 -4 0 176 -1 176 77 0 c58 0 82 -4 98 -17z m365
4 c-3 -8 -24 -12 -62 -12 l-57 0 -3 -62 -3 -63 59 0 c45 0 59 -3 59 -15 0 -12
-13 -15 -59 -15 l-58 0 0 -62 c0 -86 5 -91 74 -83 48 6 56 5 56 -9 0 -13 -13
-16 -85 -16 l-85 0 0 175 0 175 85 0 c64 0 83 -3 79 -13z m1793 1 c-2 -9 -21
-12 -59 -10 l-55 4 -6 -34 c-2 -18 -2 -48 1 -65 5 -32 5 -33 58 -33 41 0 54
-4 54 -15 0 -10 -15 -15 -57 -17 -56 -3 -58 -4 -61 -32 -2 -17 -1 -50 3 -74
l6 -44 60 7 c50 6 59 5 59 -9 0 -13 -14 -16 -85 -16 l-85 0 0 175 0 175 86 0
c64 0 85 -3 81 -12z m-2772 -583 c42 -79 80 -147 84 -150 5 -2 44 63 87 145
43 83 84 150 91 150 15 0 16 -6 43 -200 12 -85 24 -158 26 -162 3 -5 -8 -8
-24 -8 l-29 0 -18 140 c-10 78 -22 137 -26 133 -5 -5 -40 -67 -77 -138 -38
-71 -74 -131 -80 -133 -6 -2 -32 37 -58 85 -26 48 -61 113 -78 143 l-30 55 -7
-35 c-4 -19 -13 -83 -20 -142 -10 -97 -14 -108 -31 -108 -16 0 -19 5 -15 21 3
11 16 94 28 185 20 140 26 164 40 164 13 0 41 -43 94 -145z m3085 70 c0 -41 3
-75 6 -75 3 0 46 34 95 75 49 41 98 75 109 75 15 0 -6 -22 -70 -76 l-91 -77
43 -46 c23 -25 70 -74 103 -108 l59 -63 -34 0 c-32 0 -44 10 -125 101 l-90
101 -3 -101 c-3 -100 -3 -101 -27 -101 l-25 0 0 185 0 185 25 0 c24 0 25 -2
25 -75z m-2350 -97 c34 -79 69 -155 77 -170 13 -28 13 -28 -17 -28 -20 0 -30
5 -30 15 0 9 -9 34 -20 55 l-20 40 -69 0 c-75 0 -81 -4 -102 -64 -13 -36 -33
-55 -45 -43 -4 4 122 296 143 330 11 19 25 -3 83 -135z m900 127 c0 -12 -13
-15 -60 -15 l-60 0 0 -66 0 -67 50 6 c40 5 50 3 50 -8 0 -11 -13 -15 -50 -15
l-50 0 0 -71 0 -72 66 6 c53 4 64 2 62 -10 -2 -8 -6 -14 -10 -14 -5 1 -42 1
-83 1 l-75 0 0 165 0 164 78 4 c42 1 78 4 80 5 1 1 2 -5 2 -13z m380 -13 c19
-15 26 -29 28 -65 3 -40 -1 -51 -23 -73 l-27 -27 52 -73 c50 -72 50 -74 26
-74 -20 0 -35 15 -73 70 -40 58 -53 69 -77 70 l-29 0 5 -70 c5 -68 5 -70 -18
-70 l-24 0 0 164 0 165 33 4 c51 7 99 -1 127 -21z m770 19 c14 -4 26 -14 28
-23 3 -15 -1 -15 -40 0 -138 49 -234 -89 -161 -231 31 -62 127 -86 189 -48 31
19 32 19 26 -1 -11 -43 -120 -52 -192 -15 -108 54 -130 187 -45 272 49 48 124
66 195 46z m-1760 -12 c0 -13 99 -240 110 -252 6 -7 83 155 112 236 6 16 17
27 28 27 15 0 6 -27 -58 -170 -43 -93 -82 -170 -87 -170 -6 0 -45 77 -87 170
l-76 170 29 0 c16 0 29 -5 29 -11z m1305 -154 c0 -164 0 -165 -22 -165 -23 0
-23 1 -23 165 0 164 0 165 23 165 22 0 22 -1 22 -165z"/>
<path d="M3871 4289 c-151 -29 -261 -89 -377 -204 -78 -76 -98 -104 -138 -185
-55 -112 -76 -201 -76 -326 0 -277 163 -533 415 -649 255 -118 543 -82 761 93
117 94 215 249 248 392 22 93 20 257 -4 349 -82 319 -378 545 -707 540 -43 -1
-98 -5 -122 -10z m75 -400 c30 -61 58 -108 62 -105 3 4 32 54 63 112 l56 105
30 -48 c56 -88 239 -377 277 -435 l37 -58 -64 0 -64 0 -103 155 c-57 85 -104
155 -106 155 -1 0 -17 -26 -34 -57 l-31 -58 48 -98 48 -98 -79 -155 -79 -155
-84 155 -84 155 52 97 52 96 -32 66 c-18 35 -36 61 -40 56 -5 -5 -54 -78 -110
-161 l-101 -153 -65 0 -66 0 37 58 c169 266 310 482 316 482 4 0 33 -50 64
-111z"/>
<path d="M3987 3486 c-16 -24 -16 -28 -1 -58 l16 -32 14 25 c17 31 17 51 1 73
-13 17 -14 17 -30 -8z"/>
<path d="M4034 2581 c-38 -23 -64 -84 -64 -152 0 -123 96 -195 188 -139 42 26
62 73 62 145 0 72 -20 119 -62 145 -41 25 -84 25 -124 1z"/>
<path d="M2850 2526 c0 -36 4 -67 8 -70 16 -10 82 15 92 34 27 50 -6 100 -65
100 l-35 0 0 -64z"/>
<path d="M2850 2361 l0 -81 39 0 c31 0 44 6 60 26 44 56 16 121 -57 131 l-42
6 0 -82z"/>
<path d="M2986 1998 c-14 -35 -26 -66 -26 -70 0 -5 27 -8 60 -8 33 0 60 2 60
5 0 9 -59 135 -63 135 -2 0 -16 -28 -31 -62z"/>
<path d="M4267 2103 c-4 -3 -7 -39 -7 -80 l0 -73 34 0 c49 0 80 40 73 95 -3
21 -14 45 -23 52 -19 14 -66 18 -77 6z"/>
</g>
</svg>
