<?xml version="1.0" standalone="no"?>
<!DOCTYPE svg PUBLIC "-//W3C//DTD SVG 20010904//EN"
 "http://www.w3.org/TR/2001/REC-SVG-20010904/DTD/svg10.dtd">
<svg version="1.0" xmlns="http://www.w3.org/2000/svg"
 width="225.000000pt" height="225.000000pt" viewBox="0 0 225.000000 225.000000"
 preserveAspectRatio="xMidYMid meet">

<g transform="translate(0.000000,225.000000) scale(0.100000,-0.100000)"
fill="#000000" stroke="none">
<path d="M563 2243 c313 -2 821 -2 1130 0 309 1 54 2 -568 2 -622 0 -874 -1
-562 -2z"/>
<path d="M1733 1179 c-12 -4 -38 -25 -58 -46 l-35 -37 0 42 c0 31 -4 42 -15
42 -12 0 -15 -14 -15 -65 0 -51 3 -65 15 -65 8 0 15 3 15 8 0 4 9 13 21 20 18
12 24 11 43 -7 12 -12 31 -21 41 -21 16 0 14 5 -13 33 l-32 33 32 32 c35 34
35 44 1 31z"/>
<path d="M570 1115 c0 -51 3 -65 15 -65 11 0 15 11 15 38 l1 37 20 -37 c11
-21 26 -38 34 -38 8 0 23 17 34 38 l20 37 1 -37 c0 -27 4 -38 15 -38 12 0 15
14 15 65 0 56 -3 65 -18 65 -12 0 -27 -18 -43 -51 l-25 -51 -24 51 c-15 34
-30 51 -42 51 -16 0 -18 -9 -18 -65z"/>
<path d="M809 1158 c-6 -13 -23 -42 -36 -65 -24 -41 -24 -43 -6 -43 14 0 27
15 43 50 13 28 26 50 30 50 4 0 17 -22 30 -50 15 -31 30 -50 41 -50 14 0 11
10 -18 65 -37 70 -63 83 -84 43z"/>
<path d="M890 1174 c0 -3 14 -33 31 -65 42 -78 58 -77 102 6 29 54 32 65 18
65 -10 0 -27 -20 -43 -52 l-25 -53 -27 53 c-14 28 -33 52 -41 52 -8 0 -15 -3
-15 -6z"/>
<path d="M1070 1170 c0 -6 28 -10 65 -10 37 0 65 4 65 10 0 6 -28 10 -65 10
-37 0 -65 -4 -65 -10z"/>
<path d="M1210 1115 c0 -51 3 -65 15 -65 8 0 15 9 15 20 0 14 7 20 23 20 13 0
32 -9 42 -20 10 -11 27 -20 38 -20 19 0 19 1 4 18 -15 16 -15 19 3 30 22 14
26 52 8 70 -7 7 -40 12 -80 12 l-68 0 0 -65z m130 20 c0 -11 -12 -15 -50 -15
-38 0 -50 4 -50 15 0 11 12 15 50 15 38 0 50 -4 50 -15z"/>
<path d="M1390 1115 c0 -51 3 -65 15 -65 12 0 15 14 15 65 0 51 -3 65 -15 65
-12 0 -15 -14 -15 -65z"/>
<path d="M1447 1174 c-4 -4 -7 -31 -7 -60 0 -48 3 -54 23 -59 42 -11 122 -1
122 14 0 10 -16 14 -60 15 -60 1 -60 1 -60 31 0 29 1 30 58 35 31 3 58 10 60
15 2 11 -125 20 -136 9z"/>
<path d="M1070 1115 c0 -12 13 -15 59 -15 43 0 60 4 65 15 4 12 -6 15 -59 15
-51 0 -65 -3 -65 -15z"/>
<path d="M1070 1065 c0 -12 14 -15 65 -15 51 0 65 3 65 15 0 12 -14 15 -65 15
-51 0 -65 -3 -65 -15z"/>
<path d="M563 3 c313 -2 821 -2 1130 0 309 1 54 2 -568 2 -622 0 -874 -1 -562
-2z"/>
</g>
</svg>
